<svg version="1.1" id="Layer_1" xmlns="http://www.w3.org/2000/svg" xmlns:xlink="http://www.w3.org/1999/xlink" x="0px" y="0px"
	 width="100%" viewBox="0 0 632 644" enable-background="new 0 0 632 644" xml:space="preserve">
<path fill="#000000" opacity="1.000000" stroke="none" 
	d="
M351.000000,645.000000 
	C234.000015,645.000000 117.500038,645.000000 1.000047,645.000000 
	C1.000031,430.333405 1.000031,215.666779 1.000016,1.000133 
	C211.666565,1.000089 422.333130,1.000089 632.999756,1.000044 
	C632.999878,215.666519 632.999878,430.333038 632.999939,644.999756 
	C539.166687,645.000000 445.333344,645.000000 351.000000,645.000000 
M141.580963,547.776611 
	C141.794159,547.227051 142.007355,546.677490 142.785248,545.789673 
	C148.163544,539.929565 153.541840,534.069458 159.464890,527.864685 
	C159.698700,527.286499 159.932510,526.708374 160.586823,525.932678 
	C160.850601,525.745422 161.029251,525.496948 161.708878,524.857056 
	C169.836655,515.925354 177.964432,506.993591 186.676712,497.728638 
	C188.264542,495.854187 189.801743,493.933899 191.448837,492.113068 
	C199.282913,483.452606 207.146896,474.819214 215.567093,465.783203 
	C216.482651,464.623535 217.333817,463.405487 218.323914,462.313416 
	C226.547119,453.243011 234.795990,444.195862 243.485443,434.912964 
	C243.613144,434.620026 243.740845,434.327118 244.110977,433.533936 
	C244.436783,433.089478 244.762573,432.644989 245.685410,431.881836 
	C251.009033,426.206238 256.425995,420.614502 261.625946,414.827759 
	C265.581757,410.425568 269.261810,405.775543 273.539368,400.992249 
	C273.754242,400.717590 273.969116,400.442932 274.647308,399.954620 
	C274.818054,399.668915 274.988800,399.383209 275.718048,398.743378 
	C283.829163,389.893433 291.940247,381.043518 300.683472,372.351746 
	C302.447784,374.106720 304.186157,375.888733 305.980896,377.612030 
	C313.623840,384.950775 321.323273,392.231201 328.917572,399.619812 
	C331.976105,402.595490 339.599365,401.008911 342.468475,397.903564 
	C346.074493,394.000641 346.132141,387.570435 342.496429,384.020233 
	C328.401825,370.256897 314.204315,356.598999 299.759491,342.303741 
	C285.887390,328.467163 272.015289,314.630554 257.820984,300.192719 
	C253.574936,296.320282 249.208817,292.570404 245.106369,288.551392 
	C234.701248,278.357910 224.414383,268.043732 213.772934,257.200134 
	C200.864624,244.749390 187.956329,232.298630 174.742737,219.265747 
	C165.610199,210.462494 156.331863,201.803665 147.407532,192.794174 
	C143.041031,188.385986 138.008560,185.872101 131.468887,184.315002 
	C121.952171,182.590912 109.315788,189.259506 105.317268,198.367996 
	C104.213158,201.600525 102.227623,204.814255 102.158211,208.068848 
	C101.865051,221.814880 102.142578,235.573074 102.203072,250.219437 
	C102.208786,265.694214 102.214500,281.169006 102.082314,297.617279 
	C102.054695,309.280975 101.996086,320.944702 102.013458,332.608307 
	C102.021324,337.886475 105.265114,341.693268 111.253593,342.480560 
	C115.489738,343.037476 119.505386,341.914581 121.690582,336.542419 
	C122.121567,334.819641 122.847542,333.111481 122.933907,331.371582 
	C123.373535,322.514404 123.754906,313.651093 123.923355,304.785461 
	C123.984894,301.546387 123.402924,298.295105 123.875671,294.622192 
	C123.873756,279.401550 123.871841,264.180939 123.951492,248.044159 
	C123.634651,236.512543 123.224037,224.982437 123.036964,213.448715 
	C122.928871,206.784698 125.568558,204.984909 132.614716,207.240540 
	C146.365219,220.846725 160.115707,234.452896 174.199310,248.644485 
	C181.367615,255.551987 188.545792,262.449280 195.701202,269.370087 
	C201.795456,275.264557 207.863525,281.186066 214.257919,287.678864 
	C229.153091,302.151642 244.048248,316.624420 259.253693,331.682922 
	C266.749359,339.213287 274.173645,346.816833 281.782013,354.231537 
	C284.218597,356.606110 284.401276,358.226013 281.871887,360.734131 
	C277.307526,365.260010 273.114075,370.159973 268.176758,375.206299 
	C258.730225,385.776947 249.283722,396.347565 239.269455,407.274139 
	C238.046738,408.815033 236.907150,410.431366 235.587708,411.884430 
	C227.708206,420.561584 219.787262,429.201141 211.314468,438.221832 
	C206.292572,443.874176 201.230698,449.491638 196.260117,455.188782 
	C191.420929,460.735352 186.675262,466.363464 181.304413,472.263550 
	C172.806198,481.485748 164.307999,490.707947 155.311417,500.365265 
	C154.175491,501.774994 153.085815,503.225128 151.895767,504.587585 
	C146.246048,511.055878 140.568970,517.500244 134.319992,524.268982 
	C129.490601,529.440063 124.661201,534.611206 119.246353,540.135254 
	C116.124580,543.267700 113.157906,546.575562 109.851288,549.498901 
	C100.723747,557.568359 89.256744,561.616760 77.834312,560.515991 
	C60.320805,558.828308 46.346062,550.026123 39.378792,532.545898 
	C33.406200,517.561157 34.330139,502.818817 43.715816,490.094910 
	C54.094364,476.025085 66.128029,463.152161 77.742668,450.024994 
	C88.945343,437.363495 100.579926,425.085114 111.923943,412.547211 
	C115.564728,408.523254 118.884575,404.208923 122.880020,399.699066 
	C123.343636,399.228760 123.817513,398.768066 124.269310,398.286713 
	C132.150131,389.889740 140.028259,381.490265 147.977280,374.016663 
	C148.036804,390.639435 148.096329,407.262207 147.851273,424.505707 
	C139.858398,432.942780 131.865524,441.379822 123.326675,450.220215 
	C122.328819,451.529663 121.432182,452.933319 120.315994,454.132629 
	C114.785049,460.075439 109.009338,465.802612 103.701385,471.935974 
	C100.753868,475.341797 97.417778,476.318634 93.184029,476.039093 
	C83.973076,475.431030 77.463486,479.890076 72.829254,487.479095 
	C67.674202,495.921051 68.307564,504.433716 73.168610,512.671082 
	C78.595894,521.867981 91.034698,525.470520 101.544411,521.203308 
	C111.918167,516.991272 118.005005,505.341217 115.908295,494.532715 
	C115.523071,492.546875 116.306061,489.742310 117.582565,488.136719 
	C121.487724,483.224854 125.896004,478.712982 130.681854,473.716095 
	C139.507156,464.184265 148.332458,454.652466 157.702057,444.745483 
	C159.468979,442.993469 161.135956,441.124451 163.022842,439.512909 
	C167.455658,435.726929 169.260178,431.248718 169.142059,425.203888 
	C168.765991,405.961975 169.075027,386.707550 168.940323,367.459198 
	C168.917191,364.153015 169.330811,361.649048 173.794907,360.966217 
	C189.474777,358.964447 198.403458,344.879181 197.720657,332.586090 
	C196.778503,315.623444 181.779343,303.015564 167.147202,305.049408 
	C165.022141,305.239990 162.810226,305.114502 160.785690,305.670868 
	C143.622437,310.387543 136.591858,328.630524 142.922745,345.709290 
	C138.122131,351.103058 133.263840,356.446899 128.537994,361.905396 
	C124.267738,366.837616 120.142227,371.895203 115.366570,377.223633 
	C110.221718,382.626038 105.011124,387.967682 99.948212,393.445831 
	C93.206879,400.739960 86.551704,408.114502 79.911003,415.500763 
	C68.403877,428.299774 56.911022,441.111847 45.462967,453.963684 
	C39.962944,460.138153 34.125305,466.081543 29.235264,472.715424 
	C18.693012,487.017059 13.281590,503.057495 15.016109,521.062622 
	C15.974638,531.012573 18.019754,540.866577 23.716616,549.130188 
	C39.649734,572.242004 61.049591,584.777039 89.989777,580.942383 
	C103.440361,579.160156 115.245461,573.558472 125.744553,563.859619 
	C130.856384,558.608154 135.968216,553.356689 141.089325,548.073547 
	C141.089325,548.073547 141.056534,548.070923 141.580963,547.776611 
M505.816437,145.035416 
	C515.109436,138.226303 525.665649,135.718781 537.819946,135.990067 
	C542.910522,137.514725 548.533997,138.144516 552.962402,140.781265 
	C559.059204,144.411407 564.252625,149.558731 569.979431,154.765045 
	C570.294495,155.320419 570.551270,155.919846 570.933228,156.424637 
	C577.500427,165.104156 579.949524,175.326111 579.697632,185.735153 
	C579.484253,194.553345 576.669556,203.203964 571.215027,211.180145 
	C568.114197,214.966232 565.156311,218.881073 561.884827,222.513428 
	C553.298828,232.046417 544.576050,241.456268 535.969299,250.934402 
	C535.969299,250.934402 535.968506,250.870010 535.476257,251.059174 
	C535.363831,251.363480 535.251404,251.667786 534.850586,252.591324 
	C529.413757,258.381012 523.901306,264.102112 518.565918,269.983795 
	C514.818787,274.114532 511.083496,278.293060 507.755188,282.757660 
	C503.282288,288.757660 503.807831,294.675323 509.224213,298.678314 
	C513.489990,301.830872 517.935669,302.775452 523.976379,296.495941 
	C530.940918,289.256073 537.418274,281.547607 544.719971,273.758484 
	C546.648438,271.527222 548.553406,269.275085 550.509521,267.068298 
	C559.350464,257.094269 568.205750,247.133026 577.669556,236.873383 
	C580.295715,233.917908 583.040405,231.058594 585.528503,227.991104 
	C599.770264,210.432999 604.202026,190.536133 599.232300,168.575531 
	C595.154175,150.554565 584.906372,136.632767 569.784119,125.223450 
	C568.480957,124.589203 567.120483,124.050163 565.883789,123.305519 
	C556.688171,117.768425 546.743408,115.024040 535.084412,115.023018 
	C523.161682,114.267242 511.919098,116.672134 500.801086,122.692413 
	C490.436218,127.955429 482.555450,136.020645 475.160217,145.444016 
	C475.259827,145.593079 475.359467,145.742126 474.773468,145.892426 
	C474.467163,146.211044 474.160889,146.529663 473.244293,147.136429 
	C469.278778,151.473648 465.250061,155.755188 461.365082,160.163391 
	C457.289398,164.787979 453.351471,169.533981 448.846893,174.665741 
	C443.632507,180.211639 438.314545,185.664734 433.237122,191.333313 
	C429.294525,195.734924 425.652069,200.405365 421.277985,205.240051 
	C410.465393,217.129990 399.652802,229.019928 388.257202,241.243286 
	C375.805908,255.031143 363.343872,268.809326 350.927368,282.628418 
	C350.093353,283.556580 349.603485,284.794006 348.194489,285.954620 
	C347.373596,285.871826 346.285309,286.097046 345.776215,285.655090 
	C342.961273,283.211395 340.232849,280.660614 337.574982,278.044708 
	C327.377075,268.007660 317.217316,257.931885 306.754456,247.277359 
	C299.598816,240.086136 292.538605,232.795898 285.235779,225.757385 
	C282.679840,223.293915 282.848389,221.760086 285.209747,219.244019 
	C292.330109,211.657120 299.163239,203.800644 306.703522,195.742432 
	C310.935913,190.924072 315.165344,186.103119 319.401764,181.288284 
	C322.364044,177.921555 325.095673,174.311081 330.591431,176.850891 
	C332.077118,177.537506 334.185760,176.876144 336.788544,176.944870 
	C339.124908,176.306366 341.508881,175.803864 343.789490,175.005936 
	C353.972168,171.443222 362.693024,158.919403 360.716522,148.391327 
	C359.413788,141.452103 358.672028,135.744431 364.920563,131.121033 
	C365.102661,130.986298 365.017029,130.489807 365.658020,129.851196 
	C374.143280,120.582825 382.628540,111.314453 391.718719,101.745033 
	C393.419098,99.760880 395.099091,97.758827 396.823547,95.795815 
	C402.563568,89.261795 408.319550,82.741814 414.676117,75.902092 
	C416.529114,74.008949 418.804535,72.369522 420.131439,70.160393 
	C421.910156,67.199081 423.594788,67.021797 426.929565,67.638290 
	C430.776123,68.349403 434.963501,67.216858 439.753113,67.011971 
	C452.192383,63.472126 458.761505,51.636147 459.057922,43.039757 
	C459.535675,29.185772 451.286804,16.592796 434.105347,14.028432 
	C419.167206,13.865321 409.256836,20.579912 405.910217,33.529133 
	C405.646515,34.025650 405.382812,34.522167 404.981903,35.665348 
	C405.022888,36.102077 405.063873,36.538807 405.006989,37.863861 
	C405.033081,40.246429 405.059174,42.628998 404.962463,45.663624 
	C405.010498,46.100929 405.058502,46.538239 405.243805,47.678356 
	C405.844391,49.986557 407.709015,51.898373 405.063965,54.612415 
	C398.746094,61.095078 392.924591,68.061462 386.320984,75.182137 
	C377.476288,85.084030 368.631592,94.985924 359.189758,105.185623 
	C354.888916,110.181908 350.694275,115.276199 346.226410,120.118370 
	C344.772644,121.693893 342.711456,123.381493 340.739990,123.653236 
	C337.579193,124.088905 334.261597,123.387444 330.217773,123.032349 
	C318.995575,123.938553 305.866943,135.716675 306.814240,148.859177 
	C307.710083,161.287094 307.018066,161.341003 300.711670,170.641098 
	C300.158752,171.456497 299.474182,172.182617 298.253906,173.233749 
	C293.750763,178.045227 289.156525,182.775421 284.770508,187.691376 
	C280.516357,192.459518 276.476105,197.418472 271.830414,202.723358 
	C266.463959,207.954376 266.483521,207.934601 261.189880,202.699600 
	C254.489594,196.073486 247.753494,189.483612 240.737167,182.289932 
	C229.548492,171.154343 218.359833,160.018738 206.853790,148.292007 
	C196.361130,137.294937 184.919250,127.548813 170.252655,120.957466 
	C157.728424,115.639153 144.790787,112.390831 130.160187,113.034454 
	C117.915573,113.202789 106.421616,116.666115 94.443336,121.204399 
	C80.069496,128.703339 67.599495,138.545746 57.908730,151.613541 
	C44.686462,169.443481 39.945488,189.895477 40.081215,211.708679 
	C40.123390,218.486740 40.598362,225.262100 40.157810,232.500549 
	C40.130650,261.245789 40.097847,289.990997 40.108498,318.736237 
	C40.108765,319.462402 40.587570,320.188385 40.944500,321.844666 
	C40.630459,332.289551 40.170982,342.732574 40.039944,353.179749 
	C39.883373,365.662994 39.907082,378.150940 40.050331,390.634552 
	C40.129410,397.525604 44.874569,402.137573 51.223415,401.974121 
	C56.911858,401.827728 60.847157,397.466583 61.028496,391.076843 
	C61.357998,379.466431 61.849716,367.857269 61.954735,356.244690 
	C62.112801,338.766571 62.023731,321.285858 61.958458,303.806549 
	C61.951180,301.857452 61.415947,299.910309 61.842445,297.499756 
	C61.846092,276.026031 61.849735,254.552307 61.945366,232.135361 
	C61.962906,221.470764 61.560356,210.782547 62.158672,200.150635 
	C62.506565,193.968613 63.874969,187.685959 65.802605,181.781052 
	C71.234406,165.141846 82.790688,153.371109 97.938339,144.068375 
	C109.752563,137.395935 122.525230,134.290436 136.818954,134.018219 
	C138.416428,134.359146 139.999023,134.875473 141.613785,135.012253 
	C151.454529,135.845840 160.440704,139.267090 169.642136,144.223587 
	C175.914032,149.526871 182.341995,154.658524 188.414917,160.180634 
	C194.771805,165.960953 200.787598,172.116409 207.266388,178.689407 
	C218.114029,189.477234 228.961655,200.265060 240.153244,211.647003 
	C243.453247,214.643341 246.708572,217.690964 250.068863,220.618088 
	C252.325775,222.584091 252.344162,224.180893 250.148926,226.358109 
	C246.397781,230.078445 242.887222,234.048645 239.383682,238.009506 
	C234.863800,243.119370 234.759293,249.512283 239.002884,253.468979 
	C244.288361,258.397095 249.495682,258.195557 254.933701,252.631714 
	C259.295959,248.168533 263.479614,243.530792 267.906158,238.795441 
	C271.427521,242.060043 274.691071,245.085648 278.259247,248.697662 
	C287.110168,257.456848 295.961121,266.216003 305.145020,275.578125 
	C320.356445,290.423553 335.567841,305.269012 351.103516,320.707916 
	C360.760223,330.333740 370.389862,339.986938 380.088715,349.570129 
	C383.374542,352.816742 387.112640,355.238892 392.019867,353.465393 
	C400.682220,350.334656 402.526245,342.214569 396.033203,335.568146 
	C388.711517,328.073425 381.329742,320.633057 373.812927,313.335114 
	C370.035339,309.667511 365.900665,306.367737 361.851624,302.835449 
	C373.041718,290.380524 383.073395,279.214935 393.709015,267.744690 
	C394.937958,266.226746 396.101654,264.650116 397.406158,263.200134 
	C407.962311,251.466721 418.544952,239.757095 429.721222,227.747391 
	C437.502930,218.900116 445.284637,210.052826 453.671661,200.893951 
	C462.749054,190.747620 471.826416,180.601273 481.406586,170.089371 
	C489.308136,161.778503 497.209686,153.467636 505.816437,145.035416 
M506.982483,193.505219 
	C501.804626,199.020462 496.527832,204.447006 491.480347,210.079056 
	C487.454681,214.570938 483.708588,219.313385 479.235077,224.213531 
	C473.934326,229.863342 468.524658,235.416519 463.385712,241.209869 
	C461.289948,243.572479 458.486328,246.336334 458.229034,249.122986 
	C457.098053,261.373047 456.779724,273.698120 456.028687,286.889191 
	C456.053162,289.600311 456.077637,292.311401 455.953613,295.753723 
	C455.993347,296.497040 456.033081,297.240326 455.954254,298.833008 
	C455.641815,301.384644 456.945465,304.129913 453.417206,305.973602 
	C440.831451,312.550354 438.366455,321.968048 440.586700,334.275513 
	C440.857452,335.776398 440.261292,337.899170 439.280731,339.081970 
	C434.253143,345.146545 428.968170,350.997711 423.175812,357.206696 
	C412.951904,368.470947 402.672699,379.685791 392.533142,391.025452 
	C388.833679,395.162720 385.466217,399.596832 381.338135,404.182007 
	C371.403870,415.149414 361.469635,426.116821 351.192230,437.478210 
	C351.284546,437.625916 351.376892,437.773621 350.770599,437.947784 
	C350.445007,438.264648 350.119446,438.581512 349.193451,439.194489 
	C347.988190,440.737122 346.958099,442.470093 345.536774,443.777924 
	C343.387665,445.755310 341.692383,448.381134 337.751221,447.319824 
	C331.260864,445.572174 324.597168,444.468353 317.289978,443.287018 
	C312.885773,445.292450 307.718719,446.449402 304.286102,449.535522 
	C300.657806,452.797546 297.889771,453.463531 293.388336,450.790649 
	C289.018250,446.780945 284.638519,442.781708 280.280731,438.758698 
	C275.478363,434.325287 267.289551,434.735535 264.201080,439.584747 
	C261.369049,444.031281 261.624481,449.757935 265.245239,453.665314 
	C272.890991,461.916290 280.931366,469.713837 291.325653,473.423828 
	C292.052338,475.622833 292.610870,477.313080 293.056671,479.799194 
	C294.751587,494.391113 309.142914,505.664215 325.793427,504.899353 
	C331.089813,502.634369 336.754242,500.966522 341.604065,497.977112 
	C351.005249,492.182343 355.324646,480.269012 353.303925,469.397919 
	C352.950714,467.497681 354.427246,465.257355 355.743591,463.021973 
	C357.002960,462.002411 358.423737,461.128540 359.496429,459.940460 
	C369.064789,449.342468 378.571777,438.689026 388.698792,427.753143 
	C398.986328,416.166016 409.236328,404.544983 419.623352,393.047729 
	C420.590790,391.976898 422.426117,391.690125 424.070709,391.508057 
	C424.369354,391.626862 424.667969,391.745697 425.473328,392.094513 
	C425.918274,392.414856 426.363251,392.735199 427.117279,393.661011 
	C430.178192,396.702911 433.409851,399.593445 436.266693,402.816223 
	C443.632172,411.125092 449.043976,420.498535 450.996185,432.419769 
	C450.962189,455.311127 450.916290,478.202484 450.933594,501.093811 
	C450.934357,502.105682 451.511597,503.117065 451.967834,505.021606 
	C452.632660,511.175842 452.690399,517.470276 454.073181,523.458679 
	C458.692932,543.465637 469.497314,559.235352 488.056213,570.007446 
	C500.440002,577.170410 513.734985,580.216248 528.889282,578.988953 
	C543.623657,578.484558 556.660583,573.495789 568.697144,563.850586 
	C568.837524,563.413879 568.977966,562.977173 569.105835,562.668335 
	C569.105835,562.668335 569.229553,562.702881 569.940979,562.515442 
	C585.938721,549.453186 592.937134,531.951050 595.029968,511.319244 
	C594.986145,510.886749 594.942322,510.454254 595.023987,509.089050 
	C594.972229,472.724457 594.920532,436.359863 594.994812,399.065979 
	C594.994812,381.492767 594.994812,363.919556 594.994812,346.533356 
	C613.173096,338.038544 617.136597,323.860199 614.662292,311.562988 
	C611.316833,294.935730 596.313232,285.169159 582.148376,287.023834 
	C580.168701,287.122437 578.073792,286.832672 576.227600,287.380890 
	C561.138245,291.861328 554.068176,302.096008 553.341003,316.218903 
	C552.700439,328.660156 558.648621,339.034851 570.530151,344.691681 
	C573.463806,346.088409 574.065186,347.742523 574.060303,350.689667 
	C573.977234,400.475922 574.014221,450.262299 573.996460,500.048676 
	C573.991638,513.530762 571.113098,526.271790 563.316833,538.170654 
	C562.102661,539.687500 560.957458,541.266052 559.663208,542.711182 
	C550.951416,552.438538 539.362915,556.112976 526.092896,557.997620 
	C522.458984,557.854431 518.775452,558.042664 515.200378,557.507019 
	C503.662781,555.778320 494.298279,549.820557 485.757324,541.250916 
	C475.093231,527.913452 472.484772,512.346069 473.036774,495.843689 
	C473.213654,490.555145 472.948914,485.251831 472.982941,479.028839 
	C472.939331,464.042511 472.895691,449.056152 472.973602,433.223816 
	C472.358429,429.894714 471.902374,426.526855 471.101929,423.242920 
	C466.410248,403.994995 454.339996,389.553345 440.089050,376.727997 
	C437.132538,374.067200 437.789459,372.829468 439.955841,370.584290 
	C445.226898,365.121552 450.543915,359.681152 455.448334,353.897614 
	C457.368561,351.633148 459.254669,350.654297 462.873596,351.051971 
	C473.000671,351.321625 480.212494,346.131653 484.521637,337.695343 
	C489.396301,328.151886 487.226288,319.054077 479.416626,310.789429 
	C478.112915,309.409790 477.308319,307.154755 477.127319,305.224152 
	C476.919617,303.008820 477.878876,300.711792 477.957886,298.437286 
	C478.371704,286.518951 478.511993,274.588745 479.106079,262.680573 
	C479.267120,259.452240 480.675140,256.286133 482.175995,253.067001 
	C482.401672,252.722137 482.627350,252.377274 483.107605,251.478470 
	C483.760193,250.715469 484.412781,249.952454 485.675842,248.887543 
	C494.758514,238.734314 503.841156,228.581085 513.432678,218.076874 
	C520.538574,210.307449 527.710815,202.597275 534.724243,194.745316 
	C538.653137,190.346710 538.551880,184.488373 534.793701,180.251709 
	C531.194336,176.194092 524.548645,175.207794 520.316345,179.045120 
	C515.650757,183.275391 511.777039,188.379074 506.982483,193.505219 
M306.144348,541.020325 
	C293.440918,541.384583 280.737457,541.748840 267.096283,542.023071 
	C260.939240,542.016663 254.776001,541.836304 248.626938,542.054504 
	C242.846924,542.259644 237.605194,544.029114 233.790543,548.767334 
	C232.138458,550.819336 230.471451,552.859375 228.223007,555.216736 
	C221.529999,562.914673 214.822784,570.600342 208.152222,578.317627 
	C206.000916,580.806580 203.716690,582.846375 199.491180,581.181335 
	C190.181076,579.757019 182.007126,582.596924 175.509644,589.007874 
	C167.095688,597.309753 165.521606,613.631348 171.509354,622.995789 
	C178.895142,634.546692 191.572144,638.770447 205.765549,634.060059 
	C219.697571,628.199280 226.985703,612.537903 220.985626,598.516602 
	C220.548706,597.495544 221.334381,595.524292 222.157104,594.465149 
	C225.668274,589.945190 229.407028,585.601929 233.657104,580.864197 
	C236.311295,577.913147 239.046082,575.029968 241.601349,571.995605 
	C245.742081,567.078430 250.134445,563.013000 257.320129,563.413574 
	C261.858551,563.666565 266.445068,563.057129 271.940338,562.945190 
	C285.295715,562.575989 298.651093,562.206787 312.936890,561.953125 
	C317.079010,561.970398 321.226624,562.131287 325.361969,561.972168 
	C331.921692,561.719666 338.473206,561.253235 345.881409,561.018677 
	C359.769745,559.713013 372.874939,555.881104 385.676361,548.763916 
	C402.618469,538.704407 414.536133,524.166443 423.080902,506.660492 
	C425.494232,501.716309 423.919830,495.280701 419.928925,492.919617 
	C414.007751,489.416534 407.581787,490.267639 404.574463,496.211273 
	C398.825897,507.572754 390.876007,517.054016 381.223572,525.985352 
	C369.097473,534.322083 355.648590,538.890381 340.084381,540.014709 
	C329.067047,540.377869 318.049744,540.741028 306.144348,541.020325 
M535.007568,381.502930 
	C535.008057,377.339844 535.019043,373.176697 535.006653,369.013641 
	C534.987549,362.578217 530.226746,357.887451 523.838867,357.992065 
	C517.863525,358.089874 513.997314,362.415985 513.998474,368.970367 
	C514.004700,403.773865 514.002686,438.577332 514.012878,473.380829 
	C514.013611,475.850830 513.881836,477.657013 511.288879,479.556519 
	C504.702972,484.381042 500.662872,490.858032 500.896088,499.643005 
	C501.200653,511.114227 508.730621,520.583984 520.967346,522.803772 
	C529.898560,524.423950 541.286743,520.369019 546.562439,507.997437 
	C550.243652,499.364777 547.480469,486.138062 537.944641,480.431610 
	C535.529358,478.986267 534.938599,477.120667 534.946594,474.422882 
	C535.037292,443.782745 535.006104,413.142242 535.007568,381.502930 
z"/>
<path fill="#133C76" opacity="1.000000" stroke="none" 
	d="
M122.351242,400.027405 
	C118.884575,404.208923 115.564728,408.523254 111.923943,412.547211 
	C100.579926,425.085114 88.945343,437.363495 77.742668,450.024994 
	C66.128029,463.152161 54.094364,476.025085 43.715816,490.094910 
	C34.330139,502.818817 33.406200,517.561157 39.378792,532.545898 
	C46.346062,550.026123 60.320805,558.828308 77.834312,560.515991 
	C89.256744,561.616760 100.723747,557.568359 109.851288,549.498901 
	C113.157906,546.575562 116.124580,543.267700 119.823006,540.224121 
	C120.964554,541.809326 121.780617,543.261902 122.050545,544.809753 
	C123.172455,551.243164 124.129700,557.705322 125.147369,564.156921 
	C115.245461,573.558472 103.440361,579.160156 89.989777,580.942383 
	C61.049591,584.777039 39.649734,572.242004 23.716616,549.130188 
	C18.019754,540.866577 15.974638,531.012573 15.016109,521.062622 
	C13.281590,503.057495 18.693012,487.017059 29.235264,472.715424 
	C34.125305,466.081543 39.962944,460.138153 45.462967,453.963684 
	C56.911022,441.111847 68.403877,428.299774 79.911003,415.500763 
	C86.551704,408.114502 93.206879,400.739960 99.948212,393.445831 
	C105.011124,387.967682 110.221718,382.626038 115.752380,377.455261 
	C116.992783,384.071289 117.827919,390.458374 118.713173,396.838501 
	C118.998520,398.894958 119.357689,400.999634 122.351242,400.027405 
z"/>
<path fill="#133C75" opacity="1.000000" stroke="none" 
	d="
M40.875195,232.038696 
	C40.598362,225.262100 40.123390,218.486740 40.081215,211.708679 
	C39.945488,189.895477 44.686462,169.443481 57.908730,151.613541 
	C67.599495,138.545746 80.069496,128.703339 94.755234,121.561905 
	C95.792717,129.325394 96.518311,136.731369 97.243896,144.137360 
	C82.790688,153.371109 71.234406,165.141846 65.802605,181.781052 
	C63.874969,187.685959 62.506565,193.968613 62.158672,200.150635 
	C61.560356,210.782547 61.962906,221.470764 61.601524,232.897430 
	C61.213638,255.093765 61.169598,276.528015 61.125557,297.962280 
	C61.415947,299.910309 61.951180,301.857452 61.958458,303.806549 
	C62.023731,321.285858 62.112801,338.766571 61.954735,356.244690 
	C61.849716,367.857269 61.357998,379.466431 61.028496,391.076843 
	C60.847157,397.466583 56.911858,401.827728 51.223415,401.974121 
	C44.874569,402.137573 40.129410,397.525604 40.050331,390.634552 
	C39.907082,378.150940 39.883373,365.662994 40.039944,353.179749 
	C40.170982,342.732574 40.630459,332.289551 40.902191,320.915161 
	C40.864990,290.669983 40.870090,261.354340 40.875195,232.038696 
z"/>
<path fill="#0095A4" opacity="1.000000" stroke="none" 
	d="
M472.886200,479.955292 
	C472.948914,485.251831 473.213654,490.555145 473.036774,495.843689 
	C472.484772,512.346069 475.093231,527.913452 485.930176,541.962402 
	C486.460876,543.940125 486.973541,545.185059 487.151306,546.476074 
	C488.218079,554.225159 490.837463,561.967834 487.419983,569.770264 
	C469.497314,559.235352 458.692932,543.465637 454.073181,523.458679 
	C452.690399,517.470276 452.632660,511.175842 452.018219,504.112427 
	C452.076233,480.899780 452.104248,458.596222 452.047821,436.292938 
	C452.043854,434.721313 451.416473,433.151245 451.078979,431.580475 
	C449.043976,420.498535 443.632172,411.125092 436.266693,402.816223 
	C433.409851,399.593445 430.178192,396.702911 427.298676,393.160217 
	C427.975677,391.494324 428.960785,390.298523 428.890015,389.168915 
	C428.291992,379.623901 427.603241,370.080719 426.648651,360.566406 
	C426.518494,359.269012 424.771515,358.133789 423.773132,356.923462 
	C428.968170,350.997711 434.253143,345.146545 439.280731,339.081970 
	C440.261292,337.899170 440.857452,335.776398 440.586700,334.275513 
	C438.366455,321.968048 440.831451,312.550354 453.417206,305.973602 
	C456.945465,304.129913 455.641815,301.384644 456.162170,298.181366 
	C456.280731,296.694000 456.191437,295.858246 456.102112,295.022522 
	C456.077637,292.311401 456.053162,289.600311 456.414246,286.613190 
	C457.528534,288.261505 458.720001,290.140839 458.912109,292.117310 
	C460.320618,306.608704 461.864685,321.102203 462.616364,335.633789 
	C462.875763,340.648193 465.806580,346.016083 462.023987,350.944122 
	C459.254669,350.654297 457.368561,351.633148 455.448334,353.897614 
	C450.543915,359.681152 445.226898,365.121552 439.955841,370.584290 
	C437.789459,372.829468 437.132538,374.067200 440.089050,376.727997 
	C454.339996,389.553345 466.410248,403.994995 471.101929,423.242920 
	C471.902374,426.526855 472.358429,429.894714 472.725647,434.007629 
	C472.322845,448.567017 472.143982,462.342438 472.053070,476.118408 
	C472.044647,477.395477 472.595184,478.676239 472.886200,479.955292 
z"/>
<path fill="#00B3B3" opacity="1.000000" stroke="none" 
	d="
M563.930298,537.854614 
	C571.113098,526.271790 573.991638,513.530762 573.996460,500.048676 
	C574.014221,450.262299 573.977234,400.475922 574.060303,350.689667 
	C574.065186,347.742523 573.463806,346.088409 570.530151,344.691681 
	C558.648621,339.034851 552.700439,328.660156 553.341003,316.218903 
	C554.068176,302.096008 561.138245,291.861328 576.227600,287.380890 
	C578.073792,286.832672 580.168701,287.122437 582.576050,287.544678 
	C583.671326,293.321167 584.338928,298.576752 584.626282,303.914337 
	C583.657715,304.263367 583.094543,304.650848 582.477417,304.779541 
	C572.394226,306.881012 571.374939,312.763153 572.041809,320.685852 
	C572.492920,326.044952 577.552185,329.735260 585.098633,330.483032 
	C585.792725,333.409424 586.707153,335.939911 586.940735,338.531738 
	C588.425293,355.005096 589.585144,371.509796 591.266235,387.961853 
	C591.684265,392.052979 593.626892,395.988312 594.868774,399.995270 
	C594.920532,436.359863 594.972229,472.724457 594.848083,509.737000 
	C594.742859,510.908905 594.813538,511.432861 594.884216,511.956848 
	C592.937134,531.951050 585.938721,549.453186 569.422485,562.187195 
	C568.595581,559.937622 568.444946,557.974487 567.949768,556.102600 
	C566.354919,550.073608 568.806335,543.151978 563.930298,537.854614 
z"/>
<path fill="#00A6AC" opacity="1.000000" stroke="none" 
	d="
M535.007568,382.002380 
	C535.006104,413.142242 535.037292,443.782745 534.946594,474.422882 
	C534.938599,477.120667 535.529358,478.986267 537.944641,480.431610 
	C547.480469,486.138062 550.243652,499.364777 546.562439,507.997437 
	C541.286743,520.369019 529.898560,524.423950 520.967346,522.803772 
	C508.730621,520.583984 501.200653,511.114227 500.896088,499.643005 
	C500.662872,490.858032 504.702972,484.381042 511.288879,479.556519 
	C513.881836,477.657013 514.013611,475.850830 514.012878,473.380829 
	C514.002686,438.577332 514.004700,403.773865 513.998474,368.970367 
	C513.997314,362.415985 517.863525,358.089874 523.838867,357.992065 
	C530.226746,357.887451 534.987549,362.578217 535.006653,369.013641 
	C535.019043,373.176697 535.008057,377.339844 535.007568,382.002380 
z"/>
<path fill="#014C7F" opacity="1.000000" stroke="none" 
	d="
M143.089539,345.038086 
	C136.591858,328.630524 143.622437,310.387543 160.785690,305.670868 
	C162.810226,305.114502 165.022141,305.239990 167.576889,305.552368 
	C168.006470,311.313782 168.006363,316.572235 167.688019,322.004211 
	C159.248566,325.529755 156.422195,330.957703 159.050201,337.681702 
	C161.316833,343.481201 166.308853,342.908264 171.008957,343.600708 
	C171.671722,349.644348 172.335709,355.256714 172.999710,360.869080 
	C169.330811,361.649048 168.917191,364.153015 168.940323,367.459198 
	C169.075027,386.707550 168.765991,405.961975 169.142059,425.203888 
	C169.260178,431.248718 167.455658,435.726929 163.022842,439.512909 
	C161.135956,441.124451 159.468979,442.993469 157.138062,444.684113 
	C156.013382,443.116486 155.113403,441.646667 154.947144,440.098053 
	C153.874008,430.101837 153.111740,420.070618 151.935272,410.087708 
	C151.298935,404.687927 150.045227,399.360840 149.048340,393.532715 
	C148.682083,386.056061 148.337494,379.047729 147.804230,371.674561 
	C147.074844,365.422516 146.757156,359.502502 145.899948,353.661682 
	C145.467224,350.713196 144.057495,347.908051 143.089539,345.038086 
z"/>
<path fill="#009BA7" opacity="1.000000" stroke="none" 
	d="
M462.448792,350.998047 
	C465.806580,346.016083 462.875763,340.648193 462.616364,335.633789 
	C461.864685,321.102203 460.320618,306.608704 458.912109,292.117310 
	C458.720001,290.140839 457.528534,288.261505 456.483337,286.166595 
	C456.779724,273.698120 457.098053,261.373047 458.229034,249.122986 
	C458.486328,246.336334 461.289948,243.572479 463.385712,241.209869 
	C468.524658,235.416519 473.934326,229.863342 479.862122,224.259949 
	C481.235840,226.247330 482.353851,228.131622 482.660400,230.139786 
	C483.625824,236.464676 484.286621,242.836060 485.065369,249.189453 
	C484.412781,249.952454 483.760193,250.715469 482.777832,251.959930 
	C482.135620,252.658066 481.823212,252.874756 481.510803,253.091461 
	C480.675140,256.286133 479.267120,259.452240 479.106079,262.680573 
	C478.511993,274.588745 478.371704,286.518951 477.957886,298.437286 
	C477.878876,300.711792 476.919617,303.008820 477.127319,305.224152 
	C477.308319,307.154755 478.112915,309.409790 479.416626,310.789429 
	C487.226288,319.054077 489.396301,328.151886 484.521637,337.695343 
	C480.212494,346.131653 473.000671,351.321625 462.448792,350.998047 
z"/>
<path fill="#01849A" opacity="1.000000" stroke="none" 
	d="
M393.105103,268.049347 
	C383.073395,279.214935 373.041718,290.380524 361.851624,302.835449 
	C365.900665,306.367737 370.035339,309.667511 373.812927,313.335114 
	C381.329742,320.633057 388.711517,328.073425 396.033203,335.568146 
	C402.526245,342.214569 400.682220,350.334656 392.019867,353.465393 
	C387.112640,355.238892 383.374542,352.816742 380.088715,349.570129 
	C370.389862,339.986938 360.760223,330.333740 351.276855,320.202576 
	C351.963715,318.202148 353.064636,316.637146 352.896271,315.223297 
	C351.729828,305.427124 350.299316,295.662415 348.953583,285.887604 
	C349.603485,284.794006 350.093353,283.556580 350.927368,282.628418 
	C363.343872,268.809326 375.805908,255.031143 388.839417,241.311401 
	C390.278595,244.118668 391.591248,246.807693 391.899109,249.607224 
	C392.571899,255.724823 392.734253,261.898560 393.105103,268.049347 
z"/>
<path fill="#123D76" opacity="1.000000" stroke="none" 
	d="
M130.108551,474.045532 
	C125.896004,478.712982 121.487724,483.224854 117.582565,488.136719 
	C116.306061,489.742310 115.523071,492.546875 115.908295,494.532715 
	C118.005005,505.341217 111.918167,516.991272 101.544411,521.203308 
	C91.034698,525.470520 78.595894,521.867981 73.168610,512.671082 
	C68.307564,504.433716 67.674202,495.921051 72.829254,487.479095 
	C77.463486,479.890076 83.973076,475.431030 93.184029,476.039093 
	C97.417778,476.318634 100.753868,475.341797 103.701385,471.935974 
	C109.009338,465.802612 114.785049,460.075439 120.315994,454.132629 
	C121.432182,452.933319 122.328819,451.529663 123.886307,450.293152 
	C124.941872,451.546265 125.755005,452.694397 125.878014,453.912231 
	C126.371582,458.798859 126.404427,463.744202 127.132248,468.589020 
	C127.421364,470.513489 129.075745,472.232819 130.108551,474.045532 
z"/>
<path fill="#00BAB7" opacity="1.000000" stroke="none" 
	d="
M570.117554,125.858315 
	C584.906372,136.632767 595.154175,150.554565 599.232300,168.575531 
	C604.202026,190.536133 599.770264,210.432999 585.528503,227.991104 
	C583.040405,231.058594 580.295715,233.917908 577.312500,236.603607 
	C576.288452,230.985870 575.843262,225.597168 574.871704,220.305099 
	C574.282532,217.095581 572.879089,214.035538 571.841431,210.908356 
	C576.669556,203.203964 579.484253,194.553345 579.697632,185.735153 
	C579.949524,175.326111 577.500427,165.104156 570.933228,156.424637 
	C570.551270,155.919846 570.294495,155.320419 570.242126,154.209351 
	C571.002502,151.813431 572.009460,149.944870 571.908875,148.137970 
	C571.494812,140.701233 570.744324,133.283218 570.117554,125.858315 
z"/>
<path fill="#016B8E" opacity="1.000000" stroke="none" 
	d="
M268.765778,374.903748 
	C273.114075,370.159973 277.307526,365.260010 281.871887,360.734131 
	C284.401276,358.226013 284.218597,356.606110 281.782013,354.231537 
	C274.173645,346.816833 266.749359,339.213287 259.238037,331.035553 
	C259.244385,328.926636 259.338562,327.461975 259.276550,326.004028 
	C258.919220,317.599823 258.524963,309.197144 258.143188,300.793976 
	C272.015289,314.630554 285.887390,328.467163 299.759521,342.964905 
	C299.742401,345.415497 299.690887,347.205414 299.714142,348.994293 
	C299.814575,356.727539 299.936981,364.460510 300.051361,372.193573 
	C291.940247,381.043518 283.829163,389.893433 275.112732,398.739807 
	C273.670593,395.646942 272.753601,392.576691 272.015533,389.463989 
	C270.868347,384.625732 269.842865,379.758636 268.765778,374.903748 
z"/>
<path fill="#007191" opacity="1.000000" stroke="none" 
	d="
M304.812042,274.975189 
	C295.961121,266.216003 287.110168,257.456848 278.151184,248.006409 
	C278.223846,245.841034 278.655762,244.347794 278.545319,242.895813 
	C277.718262,232.020996 276.972534,221.133118 275.753021,210.299789 
	C275.442139,207.538071 273.522430,204.957458 272.341919,202.293625 
	C276.476105,197.418472 280.516357,192.459518 284.770508,187.691376 
	C289.156525,182.775421 293.750763,178.045227 298.942566,173.149445 
	C300.753357,174.982437 302.409332,176.774246 302.895172,178.841110 
	C304.228943,184.515411 305.071411,190.305191 306.108337,196.049271 
	C299.163239,203.800644 292.330109,211.657120 285.209747,219.244019 
	C282.848389,221.760086 282.679840,223.293915 285.235779,225.757385 
	C292.538605,232.795898 299.598816,240.086136 306.928284,247.977814 
	C308.065521,255.700089 309.084808,262.714874 309.969940,269.746552 
	C310.446320,273.531097 308.709839,275.381134 304.812042,274.975189 
z"/>
<path fill="#01698D" opacity="1.000000" stroke="none" 
	d="
M272.086182,202.508484 
	C273.522430,204.957458 275.442139,207.538071 275.753021,210.299789 
	C276.972534,221.133118 277.718262,232.020996 278.545319,242.895813 
	C278.655762,244.347794 278.223846,245.841034 277.998901,247.713226 
	C274.691071,245.085648 271.427521,242.060043 267.906158,238.795441 
	C263.479614,243.530792 259.295959,248.168533 254.933701,252.631714 
	C249.495682,258.195557 244.288361,258.397095 239.002884,253.468979 
	C234.759293,249.512283 234.863800,243.119370 239.383682,238.009506 
	C242.887222,234.048645 246.397781,230.078445 250.148926,226.358109 
	C252.344162,224.180893 252.325775,222.584091 250.068863,220.618088 
	C246.708572,217.690964 243.453247,214.643341 240.356079,211.267944 
	C241.248566,209.120911 242.579712,207.329803 242.516907,205.588989 
	C242.243546,198.010712 241.564499,190.447067 241.032837,182.878098 
	C247.753494,189.483612 254.489594,196.073486 261.189880,202.699600 
	C266.483521,207.934601 266.463959,207.954376 272.086182,202.508484 
z"/>
<path fill="#01467B" opacity="1.000000" stroke="none" 
	d="
M132.044571,206.888870 
	C125.568558,204.984909 122.928871,206.784698 123.036964,213.448715 
	C123.224037,224.982437 123.634651,236.512543 123.552513,248.746399 
	C123.140526,264.648865 123.127518,279.849121 123.114517,295.049377 
	C123.402924,298.295105 123.984894,301.546387 123.923355,304.785461 
	C123.754906,313.651093 123.373535,322.514404 122.933907,331.371582 
	C122.847542,333.111481 122.121567,334.819641 121.172714,336.487976 
	C119.438271,326.596985 118.018753,316.780212 117.054962,306.918915 
	C115.763435,293.704468 114.865868,280.451935 113.724312,267.222260 
	C112.183449,249.364975 110.698311,231.501129 108.912010,213.667892 
	C108.381836,208.374969 106.918755,203.175507 105.883156,197.933212 
	C109.315788,189.259506 121.952171,182.590912 131.787399,185.028427 
	C132.698761,191.318192 133.443665,196.885406 133.779510,202.477188 
	C133.865433,203.907852 132.657867,205.416214 132.044571,206.888870 
z"/>
<path fill="#0A4178" opacity="1.000000" stroke="none" 
	d="
M105.600212,198.150604 
	C106.918755,203.175507 108.381836,208.374969 108.912010,213.667892 
	C110.698311,231.501129 112.183449,249.364975 113.724312,267.222260 
	C114.865868,280.451935 115.763435,293.704468 117.054962,306.918915 
	C118.018753,316.780212 119.438271,326.596985 120.881470,336.747192 
	C119.505386,341.914581 115.489738,343.037476 111.253593,342.480560 
	C105.265114,341.693268 102.021324,337.886475 102.013458,332.608307 
	C101.996086,320.944702 102.054695,309.280975 102.155014,296.744568 
	C102.222275,280.356873 102.216835,264.841858 102.211395,249.326828 
	C102.142578,235.573074 101.865051,221.814880 102.158211,208.068848 
	C102.227623,204.814255 104.213158,201.600525 105.600212,198.150604 
z"/>
<path fill="#00BAB7" opacity="1.000000" stroke="none" 
	d="
M585.006531,303.832367 
	C584.338928,298.576752 583.671326,293.321167 583.004578,287.616516 
	C596.313232,285.169159 611.316833,294.935730 614.662292,311.562988 
	C617.136597,323.860199 613.173096,338.038544 594.994812,346.533356 
	C594.994812,363.919556 594.994812,381.492767 594.931763,399.530640 
	C593.626892,395.988312 591.684265,392.052979 591.266235,387.961853 
	C589.585144,371.509796 588.425293,355.005096 586.940735,338.531738 
	C586.707153,335.939911 585.792725,333.409424 585.472290,330.418823 
	C586.490723,329.661926 587.200806,329.206573 587.974121,329.032410 
	C593.566528,327.773041 596.151245,323.769012 596.871033,318.590942 
	C597.674866,312.807922 595.209900,308.349701 589.990723,305.629730 
	C588.438660,304.820892 586.673828,304.420135 585.006531,303.832367 
z"/>
<path fill="#007995" opacity="1.000000" stroke="none" 
	d="
M306.405945,195.895844 
	C305.071411,190.305191 304.228943,184.515411 302.895172,178.841110 
	C302.409332,176.774246 300.753357,174.982437 299.240997,173.007660 
	C299.474182,172.182617 300.158752,171.456497 300.711670,170.641098 
	C307.018066,161.341003 307.710083,161.287094 306.814240,148.859177 
	C305.866943,135.716675 318.995575,123.938553 330.708801,123.491745 
	C331.802704,129.578613 332.405609,135.206085 332.624878,140.900894 
	C330.776306,141.532806 329.122620,141.830826 327.880524,142.710220 
	C323.534515,145.787094 324.207001,150.696167 325.510284,154.406906 
	C326.989594,158.618652 331.521027,159.547104 335.928040,159.300217 
	C335.932251,165.424164 335.970367,171.128845 336.008484,176.833511 
	C334.185760,176.876144 332.077118,177.537506 330.591431,176.850891 
	C325.095673,174.311081 322.364044,177.921555 319.401764,181.288284 
	C315.165344,186.103119 310.935913,190.924072 306.405945,195.895844 
z"/>
<path fill="#007995" opacity="1.000000" stroke="none" 
	d="
M318.006531,443.093109 
	C324.597168,444.468353 331.260864,445.572174 337.751221,447.319824 
	C341.692383,448.381134 343.387665,445.755310 345.536774,443.777924 
	C346.958099,442.470093 347.988190,440.737122 349.768585,438.878479 
	C350.718872,438.348755 351.094025,438.135010 351.469177,437.921265 
	C351.376892,437.773621 351.284546,437.625916 351.547455,437.712952 
	C352.273315,439.534119 352.809143,441.102448 352.985840,442.710236 
	C353.734894,449.525146 354.377350,456.351746 355.058716,463.174103 
	C354.427246,465.257355 352.950714,467.497681 353.303925,469.397919 
	C355.324646,480.269012 351.005249,492.182343 341.604065,497.977112 
	C336.754242,500.966522 331.089813,502.634369 325.400146,504.407013 
	C325.002075,497.972687 324.997284,492.030701 325.365601,486.008057 
	C328.183533,484.541718 331.220398,483.674988 332.969757,481.679504 
	C340.163574,473.473602 333.490295,461.025604 322.005310,460.402924 
	C321.649689,455.747467 321.519135,451.481201 320.827209,447.307983 
	C320.575348,445.788910 318.985748,444.491608 318.006531,443.093109 
z"/>
<path fill="#008199" opacity="1.000000" stroke="none" 
	d="
M333.008484,140.833557 
	C332.405609,135.206085 331.802704,129.578613 331.105042,123.558861 
	C334.261597,123.387444 337.579193,124.088905 340.739990,123.653236 
	C342.711456,123.381493 344.772644,121.693893 346.226410,120.118370 
	C350.694275,115.276199 354.888916,110.181908 359.815430,105.229797 
	C361.035828,106.745201 361.934326,108.168953 362.173035,109.695854 
	C363.237091,116.501793 364.112610,123.337219 365.056244,130.161987 
	C365.017029,130.489807 365.102661,130.986298 364.920563,131.121033 
	C358.672028,135.744431 359.413788,141.452103 360.716522,148.391327 
	C362.693024,158.919403 353.972168,171.443222 343.789490,175.005936 
	C341.508881,175.803864 339.124908,176.306366 336.398499,176.889191 
	C335.970367,171.128845 335.932251,165.424164 336.124695,159.006866 
	C341.442596,157.177795 342.864441,153.259338 342.884369,148.872086 
	C342.903839,144.586777 338.531647,141.326523 333.008484,140.833557 
z"/>
<path fill="#00899D" opacity="1.000000" stroke="none" 
	d="
M423.474487,357.065063 
	C424.771515,358.133789 426.518494,359.269012 426.648651,360.566406 
	C427.603241,370.080719 428.291992,379.623901 428.890015,389.168915 
	C428.960785,390.298523 427.975677,391.494324 427.144135,392.857483 
	C426.363251,392.735199 425.918274,392.414856 425.043213,391.831665 
	C424.364685,391.387878 424.113159,391.211395 423.858490,391.039337 
	C422.426117,391.690125 420.590790,391.976898 419.623352,393.047729 
	C409.236328,404.544983 398.986328,416.166016 388.102814,427.645691 
	C387.004120,424.215515 386.458771,420.898590 386.008850,417.568756 
	C385.363800,412.795135 386.304108,407.563019 381.947266,403.895538 
	C385.466217,399.596832 388.833679,395.162720 392.533142,391.025452 
	C402.672699,379.685791 412.951904,368.470947 423.474487,357.065063 
z"/>
<path fill="#015483" opacity="1.000000" stroke="none" 
	d="
M200.070343,581.788696 
	C203.716690,582.846375 206.000916,580.806580 208.152222,578.317627 
	C214.822784,570.600342 221.529999,562.914673 228.737732,555.381470 
	C230.522568,564.095520 231.792664,572.644836 233.062744,581.194214 
	C229.407028,585.601929 225.668274,589.945190 222.157104,594.465149 
	C221.334381,595.524292 220.548706,597.495544 220.985626,598.516602 
	C226.985703,612.537903 219.697571,628.199280 205.380371,633.679016 
	C204.658859,629.406433 204.589523,625.464233 203.864319,621.646545 
	C203.541367,619.946350 201.897507,618.497009 201.013916,616.619873 
	C206.997757,609.983887 206.678223,605.514465 200.239044,599.627930 
	C200.341644,593.509583 200.206009,587.649170 200.070343,581.788696 
z"/>
<path fill="#024F80" opacity="1.000000" stroke="none" 
	d="
M200.853149,616.933838 
	C201.897507,618.497009 203.541367,619.946350 203.864319,621.646545 
	C204.589523,625.464233 204.658859,629.406433 205.021790,633.734192 
	C191.572144,638.770447 178.895142,634.546692 171.509354,622.995789 
	C165.521606,613.631348 167.095688,597.309753 175.509644,589.007874 
	C182.007126,582.596924 190.181076,579.757019 199.780762,581.484985 
	C200.206009,587.649170 200.341644,593.509583 199.857300,599.511536 
	C192.507477,598.220703 188.811249,598.919250 187.139160,603.779663 
	C186.005722,607.074280 186.217682,611.880920 187.891815,614.845947 
	C190.392120,619.274170 195.412064,618.613220 199.882446,617.127258 
	C200.193146,617.024048 200.529007,616.996521 200.853149,616.933838 
z"/>
<path fill="#01618A" opacity="1.000000" stroke="none" 
	d="
M257.982086,300.493347 
	C258.524963,309.197144 258.919220,317.599823 259.276550,326.004028 
	C259.338562,327.461975 259.244385,328.926636 259.082886,330.742676 
	C244.048248,316.624420 229.153091,302.151642 214.255676,286.996918 
	C214.337067,282.216400 214.515732,278.117035 214.480911,274.019470 
	C214.434875,268.604858 214.221573,263.191681 214.080170,257.777893 
	C224.414383,268.043732 234.701248,278.357910 245.106369,288.551392 
	C249.208817,292.570404 253.574936,296.320282 257.982086,300.493347 
z"/>
<path fill="#007995" opacity="1.000000" stroke="none" 
	d="
M304.978516,275.276672 
	C308.709839,275.381134 310.446320,273.531097 309.969940,269.746552 
	C309.084808,262.714874 308.065521,255.700089 307.072693,248.274414 
	C317.217316,257.931885 327.377075,268.007660 337.574982,278.044708 
	C340.232849,280.660614 342.961273,283.211395 345.776215,285.655090 
	C346.285309,286.097046 347.373596,285.871826 348.574036,285.921112 
	C350.299316,295.662415 351.729828,305.427124 352.896271,315.223297 
	C353.064636,316.637146 351.963715,318.202148 351.114746,319.905823 
	C335.567841,305.269012 320.356445,290.423553 304.978516,275.276672 
z"/>
<path fill="#007191" opacity="1.000000" stroke="none" 
	d="
M324.992523,486.088715 
	C324.997284,492.030701 325.002075,497.972687 325.008240,504.371735 
	C309.142914,505.664215 294.751587,494.391113 293.416199,479.180969 
	C294.183899,476.682648 294.975220,474.793732 294.932465,472.923920 
	C294.766174,465.646912 294.335236,458.375977 294.002777,451.102783 
	C297.889771,453.463531 300.657806,452.797546 304.286102,449.535522 
	C307.718719,446.449402 312.885773,445.292450 317.648254,443.190063 
	C318.985748,444.491608 320.575348,445.788910 320.827209,447.307983 
	C321.519135,451.481201 321.649689,455.747467 321.747803,460.452026 
	C321.320007,460.903809 321.146790,460.880432 320.859192,460.805725 
	C320.494293,460.687531 320.254913,460.721222 319.710907,461.018616 
	C318.096558,461.884064 316.743408,462.502411 315.508972,463.303711 
	C310.891022,466.301422 308.671600,473.851105 310.919220,478.720612 
	C314.025604,485.450623 318.920624,488.013428 324.992523,486.088715 
z"/>
<path fill="#024F80" opacity="1.000000" stroke="none" 
	d="
M132.329651,207.064697 
	C132.657867,205.416214 133.865433,203.907852 133.779510,202.477188 
	C133.443665,196.885406 132.698761,191.318192 132.069717,185.317322 
	C138.008560,185.872101 143.041031,188.385986 147.407532,192.794174 
	C156.331863,201.803665 165.610199,210.462494 174.886047,220.023407 
	C175.518738,227.843994 176.228531,234.902924 176.357666,241.972458 
	C176.394424,243.985489 174.743317,246.029358 173.866211,248.059082 
	C160.115707,234.452896 146.365219,220.846725 132.329651,207.064697 
z"/>
<path fill="#007995" opacity="1.000000" stroke="none" 
	d="
M300.367432,372.272644 
	C299.936981,364.460510 299.814575,356.727539 299.714142,348.994293 
	C299.690887,347.205414 299.742401,345.415497 299.902313,343.263977 
	C314.204315,356.598999 328.401825,370.256897 342.496429,384.020233 
	C346.132141,387.570435 346.074493,394.000641 342.468475,397.903564 
	C339.599365,401.008911 331.976105,402.595490 328.917572,399.619812 
	C321.323273,392.231201 313.623840,384.950775 305.980896,377.612030 
	C304.186157,375.888733 302.447784,374.106720 300.367432,372.272644 
z"/>
<path fill="#00899D" opacity="1.000000" stroke="none" 
	d="
M381.927521,525.868347 
	C390.876007,517.054016 398.825897,507.572754 404.574463,496.211273 
	C407.581787,490.267639 414.007751,489.416534 419.928925,492.919617 
	C423.919830,495.280701 425.494232,501.716309 423.080902,506.660492 
	C414.536133,524.166443 402.618469,538.704407 385.335571,548.375061 
	C383.972351,540.613586 382.949951,533.240967 381.927521,525.868347 
z"/>
<path fill="#0095A4" opacity="1.000000" stroke="none" 
	d="
M439.002899,66.884918 
	C434.963501,67.216858 430.776123,68.349403 426.929565,67.638290 
	C423.594788,67.021797 421.910156,67.199081 420.131439,70.160393 
	C418.804535,72.369522 416.529114,74.008949 414.352570,75.614731 
	C413.321014,67.403854 412.642456,59.477547 411.894318,51.557819 
	C411.411591,46.447628 410.923187,41.334183 410.242645,36.248241 
	C409.951569,34.072590 409.356537,31.718569 406.128113,32.983910 
	C409.256836,20.579912 419.167206,13.865321 434.601440,14.503125 
	C435.384399,20.690781 435.671265,26.403742 435.714508,32.061523 
	C435.470886,32.006340 434.986145,31.885239 434.869141,31.829592 
	C434.493256,31.701340 434.247192,31.738142 433.596802,31.932449 
	C426.448578,32.138359 422.952515,34.377693 423.201721,39.448036 
	C423.355469,42.576229 424.428375,46.549240 426.580383,48.481838 
	C429.856293,51.423775 434.242462,50.455502 438.011536,48.260822 
	C438.408234,54.746655 438.705566,60.815788 439.002899,66.884918 
z"/>
<path fill="#015885" opacity="1.000000" stroke="none" 
	d="
M174.032776,248.351791 
	C174.743317,246.029358 176.394424,243.985489 176.357666,241.972458 
	C176.228531,234.902924 175.518738,227.843994 175.038696,220.314468 
	C187.956329,232.298630 200.864624,244.749390 213.926544,257.489014 
	C214.221573,263.191681 214.434875,268.604858 214.480911,274.019470 
	C214.515732,278.117035 214.337067,282.216400 214.098297,286.705292 
	C207.863525,281.186066 201.795456,275.264557 195.701202,269.370087 
	C188.545792,262.449280 181.367615,255.551987 174.032776,248.351791 
z"/>
<path fill="#00B3B3" opacity="1.000000" stroke="none" 
	d="
M571.528198,211.044250 
	C572.879089,214.035538 574.282532,217.095581 574.871704,220.305099 
	C575.843262,225.597168 576.288452,230.985870 577.005676,236.750504 
	C568.205750,247.133026 559.350464,257.094269 550.509521,267.068298 
	C548.553406,269.275085 546.648438,271.527222 544.089355,273.705536 
	C542.969360,272.326660 542.208252,271.033997 542.041138,269.668610 
	C541.524780,265.450714 541.344849,261.191345 540.819519,256.974884 
	C540.454102,254.042328 540.086121,250.866730 535.907837,250.915192 
	C544.576050,241.456268 553.298828,232.046417 561.884827,222.513428 
	C565.156311,218.881073 568.114197,214.966232 571.528198,211.044250 
z"/>
<path fill="#018EA0" opacity="1.000000" stroke="none" 
	d="
M393.407043,267.897034 
	C392.734253,261.898560 392.571899,255.724823 391.899109,249.607224 
	C391.591248,246.807693 390.278595,244.118668 389.130920,241.144684 
	C399.652802,229.019928 410.465393,217.129990 421.948181,205.197403 
	C423.729187,206.604355 425.557465,207.937668 425.814819,209.525574 
	C426.554016,214.087051 426.510223,218.770126 427.090698,223.365448 
	C427.295105,224.983307 428.416687,226.485321 429.119507,228.040222 
	C418.544952,239.757095 407.962311,251.466721 397.406158,263.200134 
	C396.101654,264.650116 394.937958,266.226746 393.407043,267.897034 
z"/>
<path fill="#015483" opacity="1.000000" stroke="none" 
	d="
M173.397308,360.917664 
	C172.335709,355.256714 171.671722,349.644348 171.369934,343.511597 
	C180.818390,341.066864 182.152130,330.575623 175.485458,325.164642 
	C173.438705,323.503448 170.523682,322.912018 168.006256,321.830719 
	C168.006363,316.572235 168.006470,311.313782 168.008301,305.612305 
	C181.779343,303.015564 196.778503,315.623444 197.720657,332.586090 
	C198.403458,344.879181 189.474777,358.964447 173.397308,360.917664 
z"/>
<path fill="#01618A" opacity="1.000000" stroke="none" 
	d="
M240.885010,182.584015 
	C241.564499,190.447067 242.243546,198.010712 242.516907,205.588989 
	C242.579712,207.329803 241.248566,209.120911 240.184113,210.970886 
	C228.961655,200.265060 218.114029,189.477234 207.195557,178.017609 
	C206.886795,172.085007 206.479080,166.824646 206.464615,161.563202 
	C206.452988,157.337204 206.917770,153.109879 207.171158,148.883148 
	C218.359833,160.018738 229.548492,171.154343 240.885010,182.584015 
z"/>
<path fill="#008199" opacity="1.000000" stroke="none" 
	d="
M381.642700,404.038757 
	C386.304108,407.563019 385.363800,412.795135 386.008850,417.568756 
	C386.458771,420.898590 387.004120,424.215515 387.801819,427.795074 
	C378.571777,438.689026 369.064789,449.342468 359.496429,459.940460 
	C358.423737,461.128540 357.002960,462.002411 355.401154,463.098022 
	C354.377350,456.351746 353.734894,449.525146 352.985840,442.710236 
	C352.809143,441.102448 352.273315,439.534119 351.719055,437.515930 
	C361.469635,426.116821 371.403870,415.149414 381.642700,404.038757 
z"/>
<path fill="#01ABAF" opacity="1.000000" stroke="none" 
	d="
M535.938599,250.924805 
	C540.086121,250.866730 540.454102,254.042328 540.819519,256.974884 
	C541.344849,261.191345 541.524780,265.450714 542.041138,269.668610 
	C542.208252,271.033997 542.969360,272.326660 543.782959,273.847626 
	C537.418274,281.547607 530.940918,289.256073 523.976379,296.495941 
	C517.935669,302.775452 513.489990,301.830872 509.224213,298.678314 
	C503.807831,294.675323 503.282288,288.757660 507.755188,282.757660 
	C511.083496,278.293060 514.818787,274.114532 518.565918,269.983795 
	C523.901306,264.102112 529.413757,258.381012 535.143677,252.106689 
	C535.621765,251.376831 535.799011,251.126144 535.968506,250.870010 
	C535.968506,250.870010 535.969299,250.934402 535.938599,250.924805 
z"/>
<path fill="#015885" opacity="1.000000" stroke="none" 
	d="
M207.012482,148.587585 
	C206.917770,153.109879 206.452988,157.337204 206.464615,161.563202 
	C206.479080,166.824646 206.886795,172.085007 207.038605,177.726868 
	C200.787598,172.116409 194.771805,165.960953 188.414917,160.180634 
	C182.341995,154.658524 175.914032,149.526871 169.635468,143.840332 
	C170.417068,141.602081 171.866821,139.748123 171.869736,137.891876 
	C171.878525,132.288162 171.325241,126.683548 170.991074,121.079285 
	C184.919250,127.548813 196.361130,137.294937 207.012482,148.587585 
z"/>
<path fill="#005F88" opacity="1.000000" stroke="none" 
	d="
M233.359924,581.029175 
	C231.792664,572.644836 230.522568,564.095520 229.031860,555.225525 
	C230.471451,552.859375 232.138458,550.819336 233.790543,548.767334 
	C237.605194,544.029114 242.846924,542.259644 248.626938,542.054504 
	C254.776001,541.836304 260.939240,542.016663 267.806274,542.346558 
	C269.347534,549.391479 270.178772,556.113037 271.010010,562.834534 
	C266.445068,563.057129 261.858551,563.666565 257.320129,563.413574 
	C250.134445,563.013000 245.742081,567.078430 241.601349,571.995605 
	C239.046082,575.029968 236.311295,577.913147 233.359924,581.029175 
z"/>
<path fill="#00A6AC" opacity="1.000000" stroke="none" 
	d="
M563.623535,538.012634 
	C568.806335,543.151978 566.354919,550.073608 567.949768,556.102600 
	C568.444946,557.974487 568.595581,559.937622 569.066772,562.280884 
	C569.229553,562.702881 569.105835,562.668335 568.940186,562.878784 
	C568.534302,563.447632 568.294006,563.806030 568.053711,564.164429 
	C556.660583,573.495789 543.623657,578.484558 528.490356,578.519470 
	C527.729797,571.416199 527.368103,564.782410 527.006409,558.148621 
	C539.362915,556.112976 550.951416,552.438538 559.663208,542.711182 
	C560.957458,541.266052 562.102661,539.687500 563.623535,538.012634 
z"/>
<path fill="#005F88" opacity="1.000000" stroke="none" 
	d="
M243.037109,435.141693 
	C234.795990,444.195862 226.547119,453.243011 218.323914,462.313416 
	C217.333817,463.405487 216.482651,464.623535 215.276245,465.536560 
	C213.950348,456.144348 212.915283,446.998840 211.880219,437.853302 
	C219.787262,429.201141 227.708206,420.561584 235.587708,411.884430 
	C236.907150,410.431366 238.046738,408.815033 239.935043,407.191071 
	C241.390686,408.402252 242.707550,409.629456 242.882309,411.002075 
	C243.779297,418.047638 244.382523,425.130615 245.088379,432.200500 
	C244.762573,432.644989 244.436783,433.089478 243.838440,433.958832 
	C243.373474,434.625092 243.197205,434.877747 243.037109,435.141693 
z"/>
<path fill="#01467B" opacity="1.000000" stroke="none" 
	d="
M130.395203,473.880798 
	C129.075745,472.232819 127.421364,470.513489 127.132248,468.589020 
	C126.404427,463.744202 126.371582,458.798859 125.878014,453.912231 
	C125.755005,452.694397 124.941872,451.546265 124.159286,450.091492 
	C131.865524,441.379822 139.858398,432.942780 148.177643,423.833923 
	C148.692673,413.441742 148.881332,403.721344 149.070007,394.000977 
	C150.045227,399.360840 151.298935,404.687927 151.935272,410.087708 
	C153.111740,420.070618 153.874008,430.101837 154.947144,440.098053 
	C155.113403,441.646667 156.013382,443.116486 156.865906,444.871704 
	C148.332458,454.652466 139.507156,464.184265 130.395203,473.880798 
z"/>
<path fill="#015483" opacity="1.000000" stroke="none" 
	d="
M211.597351,438.037567 
	C212.915283,446.998840 213.950348,456.144348 214.992828,465.733032 
	C207.146896,474.819214 199.282913,483.452606 191.448837,492.113068 
	C189.801743,493.933899 188.264542,495.854187 186.208359,497.580688 
	C185.489426,491.751801 185.531799,486.036285 184.866882,480.404266 
	C184.525314,477.511200 182.921753,474.767151 181.888489,471.955750 
	C186.675262,466.363464 191.420929,460.735352 196.260117,455.188782 
	C201.230698,449.491638 206.292572,443.874176 211.597351,438.037567 
z"/>
<path fill="#007995" opacity="1.000000" stroke="none" 
	d="
M381.575562,525.926880 
	C382.949951,533.240967 383.972351,540.613586 384.997986,548.438843 
	C372.874939,555.881104 359.769745,559.713013 345.598145,560.583374 
	C345.242554,553.173462 347.402405,545.720642 341.019928,540.097717 
	C355.648590,538.890381 369.097473,534.322083 381.575562,525.926880 
z"/>
<path fill="#01618A" opacity="1.000000" stroke="none" 
	d="
M245.386902,432.041168 
	C244.382523,425.130615 243.779297,418.047638 242.882309,411.002075 
	C242.707550,409.629456 241.390686,408.402252 240.218918,407.013123 
	C249.283722,396.347565 258.730225,385.776947 268.471252,375.055023 
	C269.842865,379.758636 270.868347,384.625732 272.015533,389.463989 
	C272.753601,392.576691 273.670593,395.646942 274.833466,398.916870 
	C274.988800,399.383209 274.818054,399.668915 274.214600,400.219666 
	C273.542816,400.735077 273.303711,400.985443 273.064575,401.235809 
	C269.261810,405.775543 265.581757,410.425568 261.625946,414.827759 
	C256.425995,420.614502 251.009033,426.206238 245.386902,432.041168 
z"/>
<path fill="#009BA7" opacity="1.000000" stroke="none" 
	d="
M526.549683,558.073120 
	C527.368103,564.782410 527.729797,571.416199 528.049072,578.449646 
	C513.734985,580.216248 500.440002,577.170410 487.738098,569.888855 
	C490.837463,561.967834 488.218079,554.225159 487.151306,546.476074 
	C486.973541,545.185059 486.460876,543.940125 486.072937,542.275269 
	C494.298279,549.820557 503.662781,555.778320 515.200378,557.507019 
	C518.775452,558.042664 522.458984,557.854431 526.549683,558.073120 
z"/>
<path fill="#01467B" opacity="1.000000" stroke="none" 
	d="
M143.006134,345.373688 
	C144.057495,347.908051 145.467224,350.713196 145.899948,353.661682 
	C146.757156,359.502502 147.074844,365.422516 147.787079,371.937622 
	C147.941391,372.740784 147.924179,372.916077 147.906982,373.091339 
	C140.028259,381.490265 132.150131,389.889740 124.269310,398.286713 
	C123.817513,398.768066 123.343636,399.228760 122.615631,399.863220 
	C119.357689,400.999634 118.998520,398.894958 118.713173,396.838501 
	C117.827919,390.458374 116.992783,384.071289 116.045540,377.292236 
	C120.142227,371.895203 124.267738,366.837616 128.537994,361.905396 
	C133.263840,356.446899 138.122131,351.103058 143.006134,345.373688 
z"/>
<path fill="#01698D" opacity="1.000000" stroke="none" 
	d="
M271.475159,562.889893 
	C270.178772,556.113037 269.347534,549.391479 268.275146,542.391602 
	C280.737457,541.748840 293.440918,541.384583 306.896851,541.250549 
	C308.751984,542.899902 310.614838,544.217896 310.819489,545.756470 
	C311.526947,551.075439 311.656738,556.471130 312.006470,561.837646 
	C298.651093,562.206787 285.295715,562.575989 271.475159,562.889893 
z"/>
<path fill="#01467B" opacity="1.000000" stroke="none" 
	d="
M97.591125,144.102875 
	C96.518311,136.731369 95.792717,129.325394 95.098267,121.467224 
	C106.421616,116.666115 117.915573,113.202789 130.888306,113.285912 
	C132.536804,115.201180 133.986832,116.778030 134.276978,118.545303 
	C135.107086,123.601540 135.466400,128.735062 136.010834,133.838196 
	C122.525230,134.290436 109.752563,137.395935 97.591125,144.102875 
z"/>
<path fill="#00A6AC" opacity="1.000000" stroke="none" 
	d="
M485.370605,249.038498 
	C484.286621,242.836060 483.625824,236.464676 482.660400,230.139786 
	C482.353851,228.131622 481.235840,226.247330 480.163788,224.125473 
	C483.708588,219.313385 487.454681,214.570938 491.480347,210.079056 
	C496.527832,204.447006 501.804626,199.020462 507.449890,193.723541 
	C508.614014,198.002258 509.209625,202.083359 510.035614,206.117294 
	C510.880768,210.244888 511.951721,214.326263 512.923828,218.427856 
	C503.841156,228.581085 494.758514,238.734314 485.370605,249.038498 
z"/>
<path fill="#018EA0" opacity="1.000000" stroke="none" 
	d="
M406.019165,33.256523 
	C409.356537,31.718569 409.951569,34.072590 410.242645,36.248241 
	C410.923187,41.334183 411.411591,46.447628 411.894318,51.557819 
	C412.642456,59.477547 413.321014,67.403854 414.049194,75.771896 
	C408.319550,82.741814 402.563568,89.261795 396.823547,95.795815 
	C395.099091,97.758827 393.419098,99.760880 391.115845,101.732391 
	C390.183716,100.858612 389.657440,100.020027 389.555908,99.132843 
	C388.629395,91.037552 387.776825,82.933792 386.902649,74.832512 
	C392.924591,68.061462 398.746094,61.095078 405.063965,54.612415 
	C407.709015,51.898373 405.844391,49.986557 405.288269,47.142754 
	C405.250275,46.075287 405.167786,45.543423 405.085327,45.011566 
	C405.059174,42.628998 405.033081,40.246429 405.168823,37.237370 
	C405.260162,36.080147 405.189636,35.549416 405.119110,35.018684 
	C405.382812,34.522167 405.646515,34.025650 406.019165,33.256523 
z"/>
<path fill="#009BA7" opacity="1.000000" stroke="none" 
	d="
M449.353333,174.226929 
	C453.351471,169.533981 457.289398,164.787979 461.365082,160.163391 
	C465.250061,155.755188 469.278778,151.473648 473.815674,146.833939 
	C474.744446,146.318024 475.101807,146.104614 475.459137,145.891205 
	C475.359467,145.742126 475.259827,145.593079 475.535828,145.690948 
	C476.610229,150.678955 477.141357,155.452942 478.063110,160.150269 
	C478.747253,163.636734 479.938477,167.023682 480.903809,170.454956 
	C471.826416,180.601273 462.749054,190.747620 453.349792,200.605896 
	C452.655487,196.083435 452.459961,191.823853 451.862457,187.621429 
	C451.223663,183.128510 450.205780,178.689484 449.353333,174.226929 
z"/>
<path fill="#00899D" opacity="1.000000" stroke="none" 
	d="
M386.611816,75.007324 
	C387.776825,82.933792 388.629395,91.037552 389.555908,99.132843 
	C389.657440,100.020027 390.183716,100.858612 390.813385,101.882912 
	C382.628540,111.314453 374.143280,120.582825 365.357117,130.006592 
	C364.112610,123.337219 363.237091,116.501793 362.173035,109.695854 
	C361.934326,108.168953 361.035828,106.745201 360.114014,105.080887 
	C368.631592,94.985924 377.476288,85.084030 386.611816,75.007324 
z"/>
<path fill="#009BA7" opacity="1.000000" stroke="none" 
	d="
M435.958130,32.116703 
	C435.671265,26.403742 435.384399,20.690781 435.051453,14.570448 
	C451.286804,16.592796 459.535675,29.185772 459.057922,43.039757 
	C458.761505,51.636147 452.192383,63.472126 439.377991,66.948448 
	C438.705566,60.815788 438.408234,54.746655 438.196625,47.953415 
	C442.520264,41.594559 441.933533,37.779377 435.958130,32.116703 
z"/>
<path fill="#00B3B3" opacity="1.000000" stroke="none" 
	d="
M569.950806,125.540878 
	C570.744324,133.283218 571.494812,140.701233 571.908875,148.137970 
	C572.009460,149.944870 571.002502,151.813431 570.168945,153.854874 
	C564.252625,149.558731 559.059204,144.411407 552.962402,140.781265 
	C548.533997,138.144516 542.910522,137.514725 537.449585,135.550385 
	C536.721619,128.462265 536.364075,121.813820 536.006531,115.165382 
	C546.743408,115.024040 556.688171,117.768425 565.883789,123.305519 
	C567.120483,124.050163 568.480957,124.589203 569.950806,125.540878 
z"/>
<path fill="#0095A4" opacity="1.000000" stroke="none" 
	d="
M449.100098,174.446335 
	C450.205780,178.689484 451.223663,183.128510 451.862457,187.621429 
	C452.459961,191.823853 452.655487,196.083435 453.047119,200.761688 
	C445.284637,210.052826 437.502930,218.900116 429.420349,227.893814 
	C428.416687,226.485321 427.295105,224.983307 427.090698,223.365448 
	C426.510223,218.770126 426.554016,214.087051 425.814819,209.525574 
	C425.557465,207.937668 423.729187,206.604355 422.247284,205.055542 
	C425.652069,200.405365 429.294525,195.734924 433.237122,191.333313 
	C438.314545,185.664734 443.632507,180.211639 449.100098,174.446335 
z"/>
<path fill="#024F80" opacity="1.000000" stroke="none" 
	d="
M136.414886,133.928207 
	C135.466400,128.735062 135.107086,123.601540 134.276978,118.545303 
	C133.986832,116.778030 132.536804,115.201180 131.336655,113.333618 
	C144.790787,112.390831 157.728424,115.639153 170.621857,121.018372 
	C171.325241,126.683548 171.878525,132.288162 171.869736,137.891876 
	C171.866821,139.748123 170.417068,141.602081 169.338486,143.670807 
	C160.440704,139.267090 151.454529,135.845840 141.613785,135.012253 
	C139.999023,134.875473 138.416428,134.359146 136.414886,133.928207 
z"/>
<path fill="#014C7F" opacity="1.000000" stroke="none" 
	d="
M181.596451,472.109650 
	C182.921753,474.767151 184.525314,477.511200 184.866882,480.404266 
	C185.531799,486.036285 185.489426,491.751801 185.916107,497.747314 
	C177.964432,506.993591 169.836655,515.925354 161.349121,524.606689 
	C160.311081,518.998413 159.859329,513.597900 158.864044,508.299500 
	C158.323151,505.420074 156.858047,502.714264 155.809799,499.930145 
	C164.307999,490.707947 172.806198,481.485748 181.596451,472.109650 
z"/>
<path fill="#00A6AC" opacity="1.000000" stroke="none" 
	d="
M481.155212,170.272156 
	C479.938477,167.023682 478.747253,163.636734 478.063110,160.150269 
	C477.141357,155.452942 476.610229,150.678955 475.731628,145.506592 
	C482.555450,136.020645 490.436218,127.955429 501.336304,122.856384 
	C502.951447,130.399170 504.031342,137.777969 505.111237,145.156769 
	C497.209686,153.467636 489.308136,161.778503 481.155212,170.272156 
z"/>
<path fill="#01698D" opacity="1.000000" stroke="none" 
	d="
M293.695557,450.946716 
	C294.335236,458.375977 294.766174,465.646912 294.932465,472.923920 
	C294.975220,474.793732 294.183899,476.682648 293.472595,478.783051 
	C292.610870,477.313080 292.052338,475.622833 291.325653,473.423828 
	C280.931366,469.713837 272.890991,461.916290 265.245239,453.665314 
	C261.624481,449.757935 261.369049,444.031281 264.201080,439.584747 
	C267.289551,434.735535 275.478363,434.325287 280.280731,438.758698 
	C284.638519,442.781708 289.018250,446.780945 293.695557,450.946716 
z"/>
<path fill="#01ABAF" opacity="1.000000" stroke="none" 
	d="
M505.463837,145.096100 
	C504.031342,137.777969 502.951447,130.399170 501.618469,122.649445 
	C511.919098,116.672134 523.161682,114.267242 535.545471,115.094200 
	C536.364075,121.813820 536.721619,128.462265 537.041870,135.493790 
	C525.665649,135.718781 515.109436,138.226303 505.463837,145.096100 
z"/>
<path fill="#007191" opacity="1.000000" stroke="none" 
	d="
M312.471680,561.895386 
	C311.656738,556.471130 311.526947,551.075439 310.819489,545.756470 
	C310.614838,544.217896 308.751984,542.899902 307.340881,541.292480 
	C318.049744,540.741028 329.067047,540.377869 340.552155,540.056213 
	C347.402405,545.720642 345.242554,553.173462 345.171509,560.512695 
	C338.473206,561.253235 331.921692,561.719666 325.361969,561.972168 
	C321.226624,562.131287 317.079010,561.970398 312.471680,561.895386 
z"/>
<path fill="#01ABAF" opacity="1.000000" stroke="none" 
	d="
M513.178223,218.252380 
	C511.951721,214.326263 510.880768,210.244888 510.035614,206.117294 
	C509.209625,202.083359 508.614014,198.002258 507.737823,193.522079 
	C511.777039,188.379074 515.650757,183.275391 520.316345,179.045120 
	C524.548645,175.207794 531.194336,176.194092 534.793701,180.251709 
	C538.551880,184.488373 538.653137,190.346710 534.724243,194.745316 
	C527.710815,202.597275 520.538574,210.307449 513.178223,218.252380 
z"/>
<path fill="#01467B" opacity="1.000000" stroke="none" 
	d="
M155.560608,500.147705 
	C156.858047,502.714264 158.323151,505.420074 158.864044,508.299500 
	C159.859329,513.597900 160.311081,518.998413 161.056061,524.771851 
	C161.029251,525.496948 160.850601,525.745422 160.170502,526.250977 
	C159.476151,527.115906 159.198135,527.662659 158.920135,528.209351 
	C153.541840,534.069458 148.163544,539.929565 142.295258,546.154907 
	C141.555695,547.037048 141.306107,547.553955 141.056534,548.070923 
	C141.056534,548.070923 141.089325,548.073547 140.711090,547.985657 
	C139.550064,546.250732 138.383835,544.676880 138.053238,542.943604 
	C136.851395,536.642334 135.929260,530.287720 134.901642,523.953186 
	C140.568970,517.500244 146.246048,511.055878 151.895767,504.587585 
	C153.085815,503.225128 154.175491,501.774994 155.560608,500.147705 
z"/>
<path fill="#0A4178" opacity="1.000000" stroke="none" 
	d="
M134.610825,524.111084 
	C135.929260,530.287720 136.851395,536.642334 138.053238,542.943604 
	C138.383835,544.676880 139.550064,546.250732 140.706451,548.001465 
	C135.968216,553.356689 130.856384,558.608154 125.445969,564.008301 
	C124.129700,557.705322 123.172455,551.243164 122.050545,544.809753 
	C121.780617,543.261902 120.964554,541.809326 120.115730,540.047607 
	C124.661201,534.611206 129.490601,529.440063 134.610825,524.111084 
z"/>
<path fill="#A0ACC4" opacity="1.000000" stroke="none" 
	d="
M40.516502,232.269623 
	C40.870090,261.354340 40.864990,290.669983 40.851540,320.450043 
	C40.587570,320.188385 40.108765,319.462402 40.108498,318.736237 
	C40.097847,289.990997 40.130650,261.245789 40.516502,232.269623 
z"/>
<path fill="#A0ACC4" opacity="1.000000" stroke="none" 
	d="
M451.037598,432.000122 
	C451.416473,433.151245 452.043854,434.721313 452.047821,436.292938 
	C452.104248,458.596222 452.076233,480.899780 451.944458,503.665955 
	C451.511597,503.117065 450.934357,502.105682 450.933594,501.093811 
	C450.916290,478.202484 450.962189,455.311127 451.037598,432.000122 
z"/>
<path fill="#A0ACC4" opacity="1.000000" stroke="none" 
	d="
M61.484001,297.731018 
	C61.169598,276.528015 61.213638,255.093765 61.555531,233.369049 
	C61.849735,254.552307 61.846092,276.026031 61.484001,297.731018 
z"/>
<path fill="#01618A" opacity="1.000000" stroke="none" 
	d="
M147.942139,373.554016 
	C147.924179,372.916077 147.941391,372.740784 147.975769,372.302429 
	C148.337494,379.047729 148.682083,386.056061 149.048340,393.532715 
	C148.881332,403.721344 148.692673,413.441742 148.329926,423.523560 
	C148.096329,407.262207 148.036804,390.639435 147.942139,373.554016 
z"/>
<path fill="#A0ACC4" opacity="1.000000" stroke="none" 
	d="
M102.207230,249.773132 
	C102.216835,264.841858 102.222275,280.356873 102.223961,296.257843 
	C102.214500,281.169006 102.208786,265.694214 102.207230,249.773132 
z"/>
<path fill="#A0ACC4" opacity="1.000000" stroke="none" 
	d="
M123.495094,294.835785 
	C123.127518,279.849121 123.140526,264.648865 123.511734,249.204468 
	C123.871841,264.180939 123.873756,279.401550 123.495094,294.835785 
z"/>
<path fill="#00BAB7" opacity="1.000000" stroke="none" 
	d="
M472.934570,479.492065 
	C472.595184,478.676239 472.044647,477.395477 472.053070,476.118408 
	C472.143982,462.342438 472.322845,448.567017 472.664856,434.430664 
	C472.895691,449.056152 472.939331,464.042511 472.934570,479.492065 
z"/>
<path fill="#009BA7" opacity="1.000000" stroke="none" 
	d="
M456.027893,295.388123 
	C456.191437,295.858246 456.280731,296.694000 456.221436,297.756683 
	C456.033081,297.240326 455.993347,296.497040 456.027893,295.388123 
z"/>
<path fill="#0095A4" opacity="1.000000" stroke="none" 
	d="
M405.023895,45.337593 
	C405.167786,45.543423 405.250275,46.075287 405.219604,46.791348 
	C405.058502,46.538239 405.010498,46.100929 405.023895,45.337593 
z"/>
<path fill="#0A4178" opacity="1.000000" stroke="none" 
	d="
M141.318756,547.923767 
	C141.306107,547.553955 141.555695,547.037048 142.012909,546.323975 
	C142.007355,546.677490 141.794159,547.227051 141.318756,547.923767 
z"/>
<path fill="#0095A4" opacity="1.000000" stroke="none" 
	d="
M405.050507,35.342014 
	C405.189636,35.549416 405.260162,36.080147 405.217773,36.793205 
	C405.063873,36.538807 405.022888,36.102077 405.050507,35.342014 
z"/>
<path fill="#014C7F" opacity="1.000000" stroke="none" 
	d="
M159.192505,528.036987 
	C159.198135,527.662659 159.476151,527.115906 159.960236,526.349731 
	C159.932510,526.708374 159.698700,527.286499 159.192505,528.036987 
z"/>
<path fill="#00BAB7" opacity="1.000000" stroke="none" 
	d="
M594.957092,511.638062 
	C594.813538,511.432861 594.742859,510.908905 594.785339,510.203339 
	C594.942322,510.454254 594.986145,510.886749 594.957092,511.638062 
z"/>
<path fill="#01618A" opacity="1.000000" stroke="none" 
	d="
M243.261276,435.027344 
	C243.197205,434.877747 243.373474,434.625092 243.717224,434.208954 
	C243.740845,434.327118 243.613144,434.620026 243.261276,435.027344 
z"/>
<path fill="#00B3B3" opacity="1.000000" stroke="none" 
	d="
M535.722412,250.964600 
	C535.799011,251.126144 535.621765,251.376831 535.287842,251.797058 
	C535.251404,251.667786 535.363831,251.363480 535.722412,250.964600 
z"/>
<path fill="#00A6AC" opacity="1.000000" stroke="none" 
	d="
M481.843384,253.079224 
	C481.823212,252.874756 482.135620,252.658066 482.650543,252.236877 
	C482.627350,252.377274 482.401672,252.722137 481.843384,253.079224 
z"/>
<path fill="#008199" opacity="1.000000" stroke="none" 
	d="
M351.119873,437.934509 
	C351.094025,438.135010 350.718872,438.348755 350.068787,438.730438 
	C350.119446,438.581512 350.445007,438.264648 351.119873,437.934509 
z"/>
<path fill="#00A6AC" opacity="1.000000" stroke="none" 
	d="
M475.116302,145.891815 
	C475.101807,146.104614 474.744446,146.318024 474.120850,146.689865 
	C474.160889,146.529663 474.467163,146.211044 475.116302,145.891815 
z"/>
<path fill="#00B3B3" opacity="1.000000" stroke="none" 
	d="
M568.375427,564.007507 
	C568.294006,563.806030 568.534302,563.447632 568.946472,562.814819 
	C568.977966,562.977173 568.837524,563.413879 568.375427,564.007507 
z"/>
<path fill="#0095A4" opacity="1.000000" stroke="none" 
	d="
M423.964600,391.273682 
	C424.113159,391.211395 424.364685,391.387878 424.789825,391.716675 
	C424.667969,391.745697 424.369354,391.626862 423.964600,391.273682 
z"/>
<path fill="#016B8E" opacity="1.000000" stroke="none" 
	d="
M273.301971,401.114014 
	C273.303711,400.985443 273.542816,400.735077 273.982971,400.326477 
	C273.969116,400.442932 273.754242,400.717590 273.301971,401.114014 
z"/>
<path fill="#000000" opacity="1.000000" stroke="none" 
	d="
M584.626282,303.914337 
	C586.673828,304.420135 588.438660,304.820892 589.990723,305.629730 
	C595.209900,308.349701 597.674866,312.807922 596.871033,318.590942 
	C596.151245,323.769012 593.566528,327.773041 587.974121,329.032410 
	C587.200806,329.206573 586.490723,329.661926 585.377808,330.051270 
	C577.552185,329.735260 572.492920,326.044952 572.041809,320.685852 
	C571.374939,312.763153 572.394226,306.881012 582.477417,304.779541 
	C583.094543,304.650848 583.657715,304.263367 584.626282,303.914337 
z"/>
<path fill="#000000" opacity="1.000000" stroke="none" 
	d="
M167.688019,322.004211 
	C170.523682,322.912018 173.438705,323.503448 175.485458,325.164642 
	C182.152130,330.575623 180.818390,341.066864 171.371155,343.080292 
	C166.308853,342.908264 161.316833,343.481201 159.050201,337.681702 
	C156.422195,330.957703 159.248566,325.529755 167.688019,322.004211 
z"/>
<path fill="#000000" opacity="1.000000" stroke="none" 
	d="
M332.624878,140.900894 
	C338.531647,141.326523 342.903839,144.586777 342.884369,148.872086 
	C342.864441,153.259338 341.442596,157.177795 336.158600,158.587585 
	C331.521027,159.547104 326.989594,158.618652 325.510284,154.406906 
	C324.207001,150.696167 323.534515,145.787094 327.880524,142.710220 
	C329.122620,141.830826 330.776306,141.532806 332.624878,140.900894 
z"/>
<path fill="#000000" opacity="1.000000" stroke="none" 
	d="
M320.973572,460.857056 
	C321.146790,460.880432 321.320007,460.903809 321.750702,460.878052 
	C333.490295,461.025604 340.163574,473.473602 332.969757,481.679504 
	C331.220398,483.674988 328.183533,484.541718 325.365601,486.008057 
	C318.920624,488.013428 314.025604,485.450623 310.919220,478.720612 
	C308.671600,473.851105 310.891022,466.301422 315.508972,463.303711 
	C316.743408,462.502411 318.096558,461.884064 319.947571,461.065002 
	C320.499939,460.948242 320.973572,460.857056 320.973572,460.857056 
z"/>
<path fill="#000000" opacity="1.000000" stroke="none" 
	d="
M201.013916,616.619873 
	C200.529007,616.996521 200.193146,617.024048 199.882446,617.127258 
	C195.412064,618.613220 190.392120,619.274170 187.891815,614.845947 
	C186.217682,611.880920 186.005722,607.074280 187.139160,603.779663 
	C188.811249,598.919250 192.507477,598.220703 199.619049,599.769409 
	C206.678223,605.514465 206.997757,609.983887 201.013916,616.619873 
z"/>
<path fill="#007995" opacity="1.000000" stroke="none" 
	d="
M320.859192,460.805725 
	C320.973572,460.857056 320.499939,460.948242 320.263275,460.901855 
	C320.254913,460.721222 320.494293,460.687531 320.859192,460.805725 
z"/>
<path fill="#000000" opacity="1.000000" stroke="none" 
	d="
M435.714539,32.061523 
	C441.933533,37.779377 442.520264,41.594559 438.097260,47.536720 
	C434.242462,50.455502 429.856293,51.423775 426.580383,48.481838 
	C424.428375,46.549240 423.355469,42.576229 423.201721,39.448036 
	C422.952515,34.377693 426.448578,32.138359 433.839783,31.990704 
	C434.499969,32.000866 434.986145,31.885239 434.986145,31.885239 
	C434.986145,31.885239 435.470886,32.006340 435.714539,32.061523 
z"/>
<path fill="#009BA7" opacity="1.000000" stroke="none" 
	d="
M434.869141,31.829592 
	C434.986145,31.885239 434.499969,32.000866 434.256958,31.942610 
	C434.247192,31.738142 434.493256,31.701340 434.869141,31.829592 
z"/>
</svg>